<mxfile host="app.diagrams.net" modified="2023-03-26T20:45:11.332Z" agent="Mozilla/5.0 (Windows NT 10.0; Win64; x64; rv:109.0) Gecko/20100101 Firefox/111.0" etag="9ZJNmrVlznkL8gFv97t3" version="21.1.1" type="github">
  <diagram name="Page-1" id="nwmzDDg9rzGXQXywoVDp">
    <mxGraphModel dx="1434" dy="754" grid="1" gridSize="10" guides="1" tooltips="1" connect="1" arrows="1" fold="1" page="1" pageScale="1" pageWidth="827" pageHeight="1169" math="0" shadow="0">
      <root>
        <mxCell id="0" />
        <mxCell id="1" parent="0" />
        <mxCell id="Svi2D5dXMXJ2sk7aOZPu-62" value="" style="rounded=1;whiteSpace=wrap;html=1;arcSize=6;fillColor=#ffe6cc;strokeColor=#d79b00;" vertex="1" parent="1">
          <mxGeometry x="10" y="60" width="800" height="650" as="geometry" />
        </mxCell>
        <mxCell id="Svi2D5dXMXJ2sk7aOZPu-23" style="edgeStyle=orthogonalEdgeStyle;rounded=0;orthogonalLoop=1;jettySize=auto;html=1;entryX=1;entryY=0.5;entryDx=0;entryDy=0;strokeWidth=2;" edge="1" parent="1" target="Svi2D5dXMXJ2sk7aOZPu-22">
          <mxGeometry relative="1" as="geometry">
            <mxPoint x="580" y="220" as="sourcePoint" />
          </mxGeometry>
        </mxCell>
        <mxCell id="Svi2D5dXMXJ2sk7aOZPu-6" value="Општи параметри пластеника" style="swimlane;whiteSpace=wrap;html=1;movable=1;resizable=1;rotatable=1;deletable=1;editable=1;locked=0;connectable=1;strokeWidth=2;fillColor=#f5f5f5;fontColor=#333333;strokeColor=#666666;" vertex="1" parent="1">
          <mxGeometry x="580" y="100" width="200" height="270" as="geometry">
            <mxRectangle x="390" y="100" width="140" height="30" as="alternateBounds" />
          </mxGeometry>
        </mxCell>
        <mxCell id="Svi2D5dXMXJ2sk7aOZPu-2" value="Температура" style="rounded=1;whiteSpace=wrap;html=1;strokeWidth=2;" vertex="1" parent="Svi2D5dXMXJ2sk7aOZPu-6">
          <mxGeometry x="35" y="30" width="130" height="30" as="geometry" />
        </mxCell>
        <mxCell id="Svi2D5dXMXJ2sk7aOZPu-3" value="Влажност ваздуха" style="rounded=1;whiteSpace=wrap;html=1;strokeWidth=2;" vertex="1" parent="Svi2D5dXMXJ2sk7aOZPu-6">
          <mxGeometry x="35" y="70" width="130" height="30" as="geometry" />
        </mxCell>
        <mxCell id="Svi2D5dXMXJ2sk7aOZPu-4" value="Влажност земљишта" style="rounded=1;whiteSpace=wrap;html=1;strokeWidth=2;" vertex="1" parent="Svi2D5dXMXJ2sk7aOZPu-6">
          <mxGeometry x="35" y="110" width="130" height="30" as="geometry" />
        </mxCell>
        <mxCell id="Svi2D5dXMXJ2sk7aOZPu-8" value="Угљен диоксид" style="rounded=1;whiteSpace=wrap;html=1;strokeWidth=2;" vertex="1" parent="Svi2D5dXMXJ2sk7aOZPu-6">
          <mxGeometry x="35" y="190" width="130" height="30" as="geometry" />
        </mxCell>
        <mxCell id="Svi2D5dXMXJ2sk7aOZPu-9" value=". . ." style="rounded=1;whiteSpace=wrap;html=1;strokeWidth=2;" vertex="1" parent="Svi2D5dXMXJ2sk7aOZPu-6">
          <mxGeometry x="35" y="230" width="130" height="30" as="geometry" />
        </mxCell>
        <mxCell id="Svi2D5dXMXJ2sk7aOZPu-5" value="Светлост" style="rounded=1;whiteSpace=wrap;html=1;strokeWidth=2;" vertex="1" parent="Svi2D5dXMXJ2sk7aOZPu-6">
          <mxGeometry x="35" y="150" width="130" height="30" as="geometry" />
        </mxCell>
        <mxCell id="Svi2D5dXMXJ2sk7aOZPu-10" value="Сензори " style="text;html=1;strokeColor=none;fillColor=none;align=center;verticalAlign=middle;whiteSpace=wrap;rounded=0;fontSize=14;fontStyle=2;strokeWidth=2;" vertex="1" parent="1">
          <mxGeometry x="650" y="70" width="60" height="30" as="geometry" />
        </mxCell>
        <mxCell id="Svi2D5dXMXJ2sk7aOZPu-26" style="edgeStyle=orthogonalEdgeStyle;rounded=0;orthogonalLoop=1;jettySize=auto;html=1;exitX=0;exitY=0.5;exitDx=0;exitDy=0;entryX=1;entryY=0.5;entryDx=0;entryDy=0;strokeWidth=2;" edge="1" parent="1" source="Svi2D5dXMXJ2sk7aOZPu-11" target="Svi2D5dXMXJ2sk7aOZPu-25">
          <mxGeometry relative="1" as="geometry" />
        </mxCell>
        <mxCell id="Svi2D5dXMXJ2sk7aOZPu-11" value="Ђубрење" style="swimlane;whiteSpace=wrap;html=1;movable=1;resizable=1;rotatable=1;deletable=1;editable=1;locked=0;connectable=1;strokeWidth=2;fillColor=#f5f5f5;fontColor=#333333;strokeColor=#666666;" vertex="1" parent="1">
          <mxGeometry x="580" y="380" width="200" height="230" as="geometry">
            <mxRectangle x="140" y="150" width="140" height="30" as="alternateBounds" />
          </mxGeometry>
        </mxCell>
        <mxCell id="Svi2D5dXMXJ2sk7aOZPu-12" value="pH вредност" style="rounded=1;whiteSpace=wrap;html=1;strokeWidth=2;" vertex="1" parent="Svi2D5dXMXJ2sk7aOZPu-11">
          <mxGeometry x="35" y="30" width="130" height="30" as="geometry" />
        </mxCell>
        <mxCell id="Svi2D5dXMXJ2sk7aOZPu-13" value="Проводљивост" style="rounded=1;whiteSpace=wrap;html=1;strokeWidth=2;" vertex="1" parent="Svi2D5dXMXJ2sk7aOZPu-11">
          <mxGeometry x="35" y="70" width="130" height="30" as="geometry" />
        </mxCell>
        <mxCell id="Svi2D5dXMXJ2sk7aOZPu-14" value="Aзотна једињења" style="rounded=1;whiteSpace=wrap;html=1;strokeWidth=2;" vertex="1" parent="Svi2D5dXMXJ2sk7aOZPu-11">
          <mxGeometry x="35" y="110" width="130" height="30" as="geometry" />
        </mxCell>
        <mxCell id="Svi2D5dXMXJ2sk7aOZPu-18" value="Калијумова једињења" style="rounded=1;whiteSpace=wrap;html=1;strokeWidth=2;" vertex="1" parent="Svi2D5dXMXJ2sk7aOZPu-11">
          <mxGeometry x="35" y="190" width="130" height="30" as="geometry" />
        </mxCell>
        <mxCell id="Svi2D5dXMXJ2sk7aOZPu-19" value="Фосфатна једињења" style="rounded=1;whiteSpace=wrap;html=1;strokeWidth=2;" vertex="1" parent="Svi2D5dXMXJ2sk7aOZPu-11">
          <mxGeometry x="35" y="150" width="130" height="30" as="geometry" />
        </mxCell>
        <mxCell id="Svi2D5dXMXJ2sk7aOZPu-20" style="edgeStyle=orthogonalEdgeStyle;rounded=0;orthogonalLoop=1;jettySize=auto;html=1;exitX=0.5;exitY=1;exitDx=0;exitDy=0;strokeWidth=2;" edge="1" parent="Svi2D5dXMXJ2sk7aOZPu-11" source="Svi2D5dXMXJ2sk7aOZPu-19" target="Svi2D5dXMXJ2sk7aOZPu-19">
          <mxGeometry relative="1" as="geometry" />
        </mxCell>
        <mxCell id="Svi2D5dXMXJ2sk7aOZPu-77" style="edgeStyle=orthogonalEdgeStyle;rounded=0;orthogonalLoop=1;jettySize=auto;html=1;entryX=0.606;entryY=0.067;entryDx=0;entryDy=0;entryPerimeter=0;" edge="1" parent="1" source="Svi2D5dXMXJ2sk7aOZPu-22" target="Svi2D5dXMXJ2sk7aOZPu-75">
          <mxGeometry relative="1" as="geometry" />
        </mxCell>
        <mxCell id="Svi2D5dXMXJ2sk7aOZPu-22" value="Аналогно/дигитални трансформатор" style="rounded=1;whiteSpace=wrap;html=1;strokeWidth=2;fillColor=#fff2cc;strokeColor=#d6b656;" vertex="1" parent="1">
          <mxGeometry x="440" y="190" width="120" height="60" as="geometry" />
        </mxCell>
        <mxCell id="Svi2D5dXMXJ2sk7aOZPu-78" style="edgeStyle=orthogonalEdgeStyle;rounded=0;orthogonalLoop=1;jettySize=auto;html=1;exitX=0.092;exitY=1.017;exitDx=0;exitDy=0;entryX=0.75;entryY=0;entryDx=0;entryDy=0;exitPerimeter=0;" edge="1" parent="1" source="Svi2D5dXMXJ2sk7aOZPu-25" target="Svi2D5dXMXJ2sk7aOZPu-75">
          <mxGeometry relative="1" as="geometry">
            <Array as="points">
              <mxPoint x="451" y="525" />
              <mxPoint x="470" y="525" />
              <mxPoint x="470" y="593" />
              <mxPoint x="448" y="593" />
            </Array>
          </mxGeometry>
        </mxCell>
        <mxCell id="Svi2D5dXMXJ2sk7aOZPu-25" value="Аналогно/дигитални трансформатор" style="rounded=1;whiteSpace=wrap;html=1;strokeWidth=2;fillColor=#fff2cc;strokeColor=#d6b656;" vertex="1" parent="1">
          <mxGeometry x="440" y="465" width="120" height="60" as="geometry" />
        </mxCell>
        <mxCell id="Svi2D5dXMXJ2sk7aOZPu-58" style="edgeStyle=orthogonalEdgeStyle;rounded=0;orthogonalLoop=1;jettySize=auto;html=1;entryX=0;entryY=0.5;entryDx=0;entryDy=0;strokeWidth=2;" edge="1" parent="1" source="Svi2D5dXMXJ2sk7aOZPu-39" target="Svi2D5dXMXJ2sk7aOZPu-57">
          <mxGeometry relative="1" as="geometry" />
        </mxCell>
        <mxCell id="Svi2D5dXMXJ2sk7aOZPu-39" value="" style="swimlane;startSize=0;strokeWidth=2;fillColor=#f5f5f5;fontColor=#333333;strokeColor=#666666;" vertex="1" parent="1">
          <mxGeometry x="30" y="100" width="200" height="220" as="geometry" />
        </mxCell>
        <mxCell id="Svi2D5dXMXJ2sk7aOZPu-41" value="Вентилација / Хлађење" style="rounded=1;whiteSpace=wrap;html=1;strokeWidth=2;" vertex="1" parent="Svi2D5dXMXJ2sk7aOZPu-39">
          <mxGeometry x="35" y="50" width="130" height="30" as="geometry" />
        </mxCell>
        <mxCell id="Svi2D5dXMXJ2sk7aOZPu-40" value="Грејање" style="rounded=1;whiteSpace=wrap;html=1;strokeWidth=2;" vertex="1" parent="1">
          <mxGeometry x="65" y="110" width="130" height="30" as="geometry" />
        </mxCell>
        <mxCell id="Svi2D5dXMXJ2sk7aOZPu-42" value="Наводњавање" style="rounded=1;whiteSpace=wrap;html=1;strokeWidth=2;" vertex="1" parent="1">
          <mxGeometry x="65" y="190" width="130" height="30" as="geometry" />
        </mxCell>
        <mxCell id="Svi2D5dXMXJ2sk7aOZPu-43" value="Осветљење" style="rounded=1;whiteSpace=wrap;html=1;strokeWidth=2;" vertex="1" parent="1">
          <mxGeometry x="65" y="230" width="130" height="30" as="geometry" />
        </mxCell>
        <mxCell id="Svi2D5dXMXJ2sk7aOZPu-44" value="Засене" style="rounded=1;whiteSpace=wrap;html=1;strokeWidth=2;" vertex="1" parent="1">
          <mxGeometry x="65" y="270" width="130" height="30" as="geometry" />
        </mxCell>
        <mxCell id="Svi2D5dXMXJ2sk7aOZPu-60" style="edgeStyle=orthogonalEdgeStyle;rounded=0;orthogonalLoop=1;jettySize=auto;html=1;entryX=0;entryY=0.5;entryDx=0;entryDy=0;strokeWidth=2;" edge="1" parent="1" source="Svi2D5dXMXJ2sk7aOZPu-45" target="Svi2D5dXMXJ2sk7aOZPu-59">
          <mxGeometry relative="1" as="geometry" />
        </mxCell>
        <mxCell id="Svi2D5dXMXJ2sk7aOZPu-45" value="" style="swimlane;startSize=0;strokeWidth=2;fillColor=#f5f5f5;fontColor=#333333;strokeColor=#666666;" vertex="1" parent="1">
          <mxGeometry x="30" y="350" width="200" height="250" as="geometry" />
        </mxCell>
        <mxCell id="Svi2D5dXMXJ2sk7aOZPu-46" value="Додати воду" style="rounded=1;whiteSpace=wrap;html=1;strokeWidth=2;" vertex="1" parent="Svi2D5dXMXJ2sk7aOZPu-45">
          <mxGeometry x="35" y="10" width="130" height="30" as="geometry" />
        </mxCell>
        <mxCell id="Svi2D5dXMXJ2sk7aOZPu-47" value="Додати азотну компоненту" style="rounded=1;whiteSpace=wrap;html=1;strokeWidth=2;" vertex="1" parent="Svi2D5dXMXJ2sk7aOZPu-45">
          <mxGeometry x="35" y="50" width="130" height="30" as="geometry" />
        </mxCell>
        <mxCell id="Svi2D5dXMXJ2sk7aOZPu-49" value="Додати фосфатну компоненту" style="rounded=1;whiteSpace=wrap;html=1;strokeWidth=2;" vertex="1" parent="Svi2D5dXMXJ2sk7aOZPu-45">
          <mxGeometry x="35" y="90" width="130" height="30" as="geometry" />
        </mxCell>
        <mxCell id="Svi2D5dXMXJ2sk7aOZPu-51" value="Додати калијумову компоненту" style="rounded=1;whiteSpace=wrap;html=1;strokeWidth=2;" vertex="1" parent="Svi2D5dXMXJ2sk7aOZPu-45">
          <mxGeometry x="35" y="130" width="130" height="30" as="geometry" />
        </mxCell>
        <mxCell id="Svi2D5dXMXJ2sk7aOZPu-52" value="Додати киселину" style="rounded=1;whiteSpace=wrap;html=1;strokeWidth=2;" vertex="1" parent="1">
          <mxGeometry x="65" y="520" width="130" height="30" as="geometry" />
        </mxCell>
        <mxCell id="Svi2D5dXMXJ2sk7aOZPu-54" value="Додати базу" style="rounded=1;whiteSpace=wrap;html=1;strokeWidth=2;" vertex="1" parent="1">
          <mxGeometry x="65" y="560" width="130" height="30" as="geometry" />
        </mxCell>
        <mxCell id="Svi2D5dXMXJ2sk7aOZPu-55" value="Уређаји" style="text;html=1;strokeColor=none;fillColor=none;align=center;verticalAlign=middle;whiteSpace=wrap;rounded=0;fontSize=14;fontStyle=2;strokeWidth=2;" vertex="1" parent="1">
          <mxGeometry x="100" y="70" width="60" height="30" as="geometry" />
        </mxCell>
        <mxCell id="Svi2D5dXMXJ2sk7aOZPu-76" style="edgeStyle=orthogonalEdgeStyle;rounded=0;orthogonalLoop=1;jettySize=auto;html=1;exitX=1;exitY=0.5;exitDx=0;exitDy=0;entryX=0.5;entryY=0;entryDx=0;entryDy=0;" edge="1" parent="1" source="Svi2D5dXMXJ2sk7aOZPu-57" target="Svi2D5dXMXJ2sk7aOZPu-75">
          <mxGeometry relative="1" as="geometry" />
        </mxCell>
        <mxCell id="Svi2D5dXMXJ2sk7aOZPu-57" value="&lt;div&gt;Релејна плоча&lt;/div&gt;&lt;div&gt;PWM контролер&lt;br&gt; &lt;/div&gt;" style="rounded=1;whiteSpace=wrap;html=1;strokeWidth=2;fillColor=#dae8fc;strokeColor=#6c8ebf;" vertex="1" parent="1">
          <mxGeometry x="250" y="180" width="120" height="60" as="geometry" />
        </mxCell>
        <mxCell id="Svi2D5dXMXJ2sk7aOZPu-79" style="edgeStyle=orthogonalEdgeStyle;rounded=0;orthogonalLoop=1;jettySize=auto;html=1;exitX=1;exitY=1;exitDx=0;exitDy=0;entryX=0.353;entryY=0;entryDx=0;entryDy=0;entryPerimeter=0;" edge="1" parent="1" source="Svi2D5dXMXJ2sk7aOZPu-59" target="Svi2D5dXMXJ2sk7aOZPu-75">
          <mxGeometry relative="1" as="geometry" />
        </mxCell>
        <mxCell id="Svi2D5dXMXJ2sk7aOZPu-59" value="&lt;div&gt;Релејна плоча&lt;/div&gt;&lt;div&gt;PWM контролер&lt;br&gt; &lt;/div&gt;" style="rounded=1;whiteSpace=wrap;html=1;strokeWidth=2;fillColor=#dae8fc;strokeColor=#6c8ebf;" vertex="1" parent="1">
          <mxGeometry x="250" y="445" width="120" height="60" as="geometry" />
        </mxCell>
        <mxCell id="Svi2D5dXMXJ2sk7aOZPu-75" value="Хардверски слој" style="rounded=0;whiteSpace=wrap;html=1;fontStyle=1;fontSize=17;fillColor=#ffe6cc;strokeColor=#000000;strokeWidth=2;" vertex="1" parent="1">
          <mxGeometry x="320" y="660" width="170" height="30" as="geometry" />
        </mxCell>
      </root>
    </mxGraphModel>
  </diagram>
</mxfile>
